<svg xmlns="http://www.w3.org/2000/svg" viewBox="0 0 239 237"><defs><style>.a{fill:#ffd400;}.b{fill:#0c0c0c;}</style></defs><rect class="a" x="4" y="3.5" width="230" height="230" rx="26.12"/><path class="b" d="M80.14,127.81c1,4.49,4.24,6.46,9.41,6.46s7.37-2,7.37-5.31c0-3.64-2.16-5.22-9.8-7-12.17-2.85-15.18-7.28-15.18-13.31,0-7.8,5.83-13.09,16.41-13.09,11.87,0,16.6,6.38,17.24,12.92H95.85c-.46-2.75-2-5.74-7.75-5.74-3.92,0-6.29,1.62-6.29,4.8s1.9,4.37,9.12,6c13,3.07,15.86,7.9,15.86,14.21,0,8.16-6.18,13.76-18,13.76-11.35,0-17.32-5.59-18.39-13.74Z"/><path class="b" d="M141.19,132.25a77,77,0,0,0,.45,8.67h-8.87a13.51,13.51,0,0,1-.47-3.28c-1.22,1.88-3.5,4.06-9.44,4.06-8.09,0-11.51-5.32-11.51-10.53,0-7.65,6.14-11.17,16-11.17h4.79v-2.06c0-2.38-.86-4.73-5.17-4.73-3.93,0-4.78,1.67-5.21,4.1h-8.84c.5-6,4.19-10.79,14.4-10.73,9,0,13.88,3.56,13.88,11.55Zm-9.06-6.61h-3.78c-5.6,0-7.68,1.71-7.68,4.94,0,2.43,1.49,4.48,4.83,4.48,5.91,0,6.63-4.11,6.63-8.54Z"/><path class="b" d="M149.6,116.46c0-3.34,0-6.3-.06-9.11h9.11c.12.76.24,4.09.24,5.9,1.49-3.84,5.06-6.64,10.77-6.67v8.86c-6.74-.17-10.77,1.64-10.77,10.84v14.64H149.6Z"/><path class="b" d="M201.88,132.25a74,74,0,0,0,.46,8.67h-8.88a14,14,0,0,1-.47-3.28c-1.22,1.88-3.5,4.06-9.44,4.06-8.09,0-11.5-5.32-11.5-10.53,0-7.65,6.14-11.17,16-11.17h4.79v-2.06c0-2.38-.86-4.73-5.17-4.73-3.92,0-4.78,1.67-5.21,4.1H173.6c.51-6,4.2-10.79,14.4-10.73,9,0,13.88,3.56,13.88,11.55Zm-9-6.61H189c-5.6,0-7.68,1.71-7.68,4.94,0,2.43,1.5,4.48,4.84,4.48,5.9,0,6.63-4.11,6.63-8.54Z"/><path class="b" d="M51.38,126.53c.62.17,1.3.34,2.06.51,6.24,1.46,9.34,3.48,10.75,6v-9.79h-7.1c-.33-1.94-1.36-4-5.1-4.24a15.27,15.27,0,0,1,.23,2.74A13.05,13.05,0,0,1,51.38,126.53Z"/><path class="b" d="M40.5,118.7c-1.46-1-3.77-1.73-7.27-2.54-9.3-2.17-13.06-5.29-14.23-9.4v15.07h7.5c1,4.33,4.1,6.23,9.1,6.22a10.62,10.62,0,0,0,4.5-.83,8.61,8.61,0,0,1-.77-3.81A9.19,9.19,0,0,1,40.5,118.7Z"/><path class="b" d="M64.19,122.28v-18.7A11.86,11.86,0,0,0,52.33,91.72H41.68A12.88,12.88,0,0,1,51,103.12l-9.4,0c-.45-2.66-1.93-5.54-7.49-5.53-3.79,0-6.07,1.58-6.06,4.64s1.84,4.21,8.81,5.82c6.31,1.48,10.15,3.39,12.41,5.7a21.83,21.83,0,0,1,2.19-.11C59.74,113.64,63.35,117.77,64.19,122.28Z"/><path class="b" d="M38.2,137.64h7.24c.76,3.33,3.15,4.79,7,4.79s5.47-1.53,5.47-4c0-2.7-1.61-3.87-7.29-5.19a33.78,33.78,0,0,1-3.89-1.12c-2.87,1.85-6.83,2.91-11.85,2.91-8,0-13.23-2.85-15.88-7.45v5.81a11.86,11.86,0,0,0,11.86,11.86H42.55A10.83,10.83,0,0,1,38.2,137.64Z"/><path class="b" d="M215.38,139.91a1.14,1.14,0,0,0,.82-1.24c0-.68-.24-.92-.64-.92s-.59.28-.82,1.22c-.52,2.14-1.19,2.49-2.11,2.49s-2-.68-2-2.66,1.08-2.67,2-2.72v1.73c-.24.05-.7.22-.7,1.07,0,.6.27.8.56.8s.49-.21.74-1.27c.51-2.2,1.26-2.51,2.22-2.51s2.08.83,2.08,2.83-1,2.82-2.13,3Z"/><path class="b" d="M208.09,133h3.47a2.12,2.12,0,0,1-.92-1.88c0-1.23.72-2.2,2.5-2.2h4.22v1.8h-3.94c-.86,0-1.31.31-1.31,1.07,0,1,.75,1.21,1.76,1.21h3.49v1.82h-9.27Z"/><path class="b" d="M214.06,121.12a3.25,3.25,0,1,1-3.42,3.18A3.11,3.11,0,0,1,214.06,121.12Zm0,4.65c1.27,0,2-.55,2-1.42s-.75-1.39-2-1.39-2,.51-2,1.41S212.68,125.77,214.07,125.77Z"/><path class="b" d="M216.78,118.06h3.09v1.81h-9.08v-1.76a6.42,6.42,0,0,1,.82-.06,2.08,2.08,0,0,1-1-1.91c0-1.47,1.23-2.61,3.27-2.61,2.32,0,3.6,1.27,3.6,2.86A1.82,1.82,0,0,1,216.78,118.06Zm-2.8-2.68c-1.21,0-1.89.49-1.89,1.35,0,1,.67,1.4,2,1.4s2-.34,2-1.32S215.32,115.38,214,115.38Z"/><path class="b" d="M210.79,111.07c2.27-.68,4.29-1.27,4.89-1.37v0c-.66-.14-2.13-.52-4.89-1.31v-1.81l6.76,2.21c1.89.63,2.45,1.15,2.45,2.73a7.63,7.63,0,0,1-.05.85h-1.46c0-.12,0-.32,0-.47a1.15,1.15,0,0,0-1-1.25L210.79,113Z"/></svg>