<svg xmlns="http://www.w3.org/2000/svg" viewBox="0 0 266 78"><defs><style>.a{fill:#0c0c0c;}</style></defs><path class="a" d="M82.47,49.92c1.31,5.76,5.45,8.28,12.09,8.28S104,55.59,104,51.39c0-4.67-2.76-6.7-12.58-9C75.82,38.74,72,33.06,72,25.31,72,15.31,79.44,8.52,93,8.52c15.24,0,21.31,8.19,22.13,16.58h-12.5c-.6-3.53-2.55-7.36-10-7.36-5,0-8.08,2.08-8.08,6.15s2.44,5.61,11.71,7.76c16.69,3.93,20.35,10.14,20.35,18.23,0,10.48-7.93,17.67-23.1,17.67C79,67.55,71.35,60.38,70,49.92Z"/><path class="a" d="M160.84,55.6a97.16,97.16,0,0,0,.58,11.14H150a17.88,17.88,0,0,1-.6-4.21c-1.57,2.42-4.5,5.21-12.12,5.21-10.38,0-14.77-6.83-14.77-13.52,0-9.81,7.89-14.34,20.52-14.34h6.15V37.25c0-3.07-1.11-6.08-6.64-6.08-5,0-6.14,2.14-6.69,5.26H124.54c.65-7.65,5.38-13.85,18.48-13.78,11.54.08,17.82,4.59,17.82,14.84Zm-11.62-8.48h-4.86c-7.19,0-9.86,2.2-9.86,6.35,0,3.12,1.92,5.75,6.2,5.75,7.58,0,8.52-5.27,8.52-11Z"/><path class="a" d="M171.64,35.34c0-4.28,0-8.08-.09-11.69h11.7c.16,1,.32,5.24.32,7.57,1.9-4.93,6.49-8.53,13.82-8.57V34c-8.66-.23-13.82,2.1-13.82,13.91V66.74H171.64Z"/><path class="a" d="M238.75,55.6a97.16,97.16,0,0,0,.58,11.14h-11.4a17.88,17.88,0,0,1-.6-4.21c-1.56,2.42-4.49,5.21-12.11,5.21-10.39,0-14.77-6.83-14.77-13.52,0-9.81,7.88-14.34,20.51-14.34h6.15V37.25c0-3.07-1.1-6.08-6.63-6.08-5,0-6.14,2.14-6.69,5.26H202.45c.64-7.65,5.38-13.85,18.48-13.78,11.54.08,17.82,4.59,17.82,14.84Zm-11.63-8.48h-4.86c-7.19,0-9.85,2.2-9.85,6.35,0,3.12,1.91,5.75,6.2,5.75,7.58,0,8.51-5.27,8.51-11Z"/><path class="a" d="M45.57,48.27q1.17.31,2.64.66c8,1.87,12,4.46,13.8,7.68V44l-9.12,0c-.42-2.49-1.75-5.17-6.54-5.44a20.15,20.15,0,0,1,.29,3.52A16.77,16.77,0,0,1,45.57,48.27Z"/><path class="a" d="M31.59,38.21C29.72,37,26.76,36,22.26,35,10.32,32.18,5.5,28.16,4,22.9V42.24l9.63,0c1.27,5.56,5.26,8,11.67,8a13.54,13.54,0,0,0,5.79-1.06,11,11,0,0,1-1-4.89A12.11,12.11,0,0,1,31.59,38.21Z"/><path class="a" d="M62,42.81v-24A15.23,15.23,0,0,0,46.78,3.58H33.12c7.93,2.58,11.4,8.55,12,14.64l-12.07,0c-.58-3.4-2.47-7.1-9.61-7.09-4.86,0-7.79,2-7.79,6S18,22.51,27,24.57c8.1,1.9,13,4.35,15.92,7.32q1.35-.13,2.82-.15C56.29,31.73,60.93,37,62,42.81Z"/><path class="a" d="M28.64,62.53l9.29,0c1,4.28,4.06,6.16,9,6.15s7-2,7-5.08c0-3.47-2.06-5-9.36-6.66a45.1,45.1,0,0,1-5-1.44c-3.68,2.38-8.77,3.73-15.21,3.74-10.26,0-17-3.66-20.38-9.57v7.46A15.23,15.23,0,0,0,19.23,72.34h15A13.94,13.94,0,0,1,28.64,62.53Z"/><path class="a" d="M256.07,65.44a1.44,1.44,0,0,0,1.05-1.59c0-.87-.31-1.18-.82-1.18s-.75.36-1.05,1.57c-.67,2.75-1.53,3.2-2.71,3.2S250,66.56,250,64s1.4-3.43,2.54-3.5v2.22c-.31.08-.9.28-.9,1.38,0,.77.34,1,.72,1s.62-.26.94-1.63c.66-2.81,1.62-3.21,2.86-3.21s2.66,1.06,2.66,3.63-1.23,3.62-2.73,3.81Z"/><path class="a" d="M246.72,56.5h4.45A2.71,2.71,0,0,1,250,54.09c0-1.57.93-2.82,3.22-2.82h5.41v2.32h-5.06c-1.1,0-1.68.38-1.68,1.36,0,1.3,1,1.55,2.27,1.55h4.47v2.34H246.72Z"/><path class="a" d="M254.38,41.32c2.55,0,4.42,1.53,4.42,4.2s-1.86,4.14-4.38,4.14S250,48.08,250,45.41C250,42.93,251.73,41.32,254.38,41.32Zm0,6c1.63,0,2.59-.7,2.59-1.82s-1-1.78-2.57-1.78c-1.77,0-2.6.65-2.6,1.81S252.61,47.29,254.39,47.29Z"/><path class="a" d="M257.86,37.4h4v2.32H250.18V37.47a10.24,10.24,0,0,1,1-.07A2.67,2.67,0,0,1,250,35c0-1.9,1.59-3.36,4.2-3.36,3,0,4.62,1.63,4.62,3.68A2.34,2.34,0,0,1,257.86,37.4ZM254.27,34c-1.54,0-2.42.62-2.42,1.73,0,1.33.85,1.8,2.55,1.8s2.55-.44,2.55-1.7S256,34,254.27,34Z"/><path class="a" d="M250.18,28.42c2.91-.87,5.5-1.63,6.28-1.76v0c-.85-.18-2.74-.67-6.28-1.68V22.64l8.67,2.83C261.28,26.28,262,27,262,29c0,.21,0,.69-.06,1.1h-1.88a5.68,5.68,0,0,0,0-.61,1.47,1.47,0,0,0-1.23-1.6l-8.69,3.07Z"/></svg>